<svg width="55" height="55" viewBox="0 0 55 55" fill="none" xmlns="http://www.w3.org/2000/svg">
<g id="Shipping">
<path id="Vector" d="M53.625 35.75H52.25V26.4601C52.25 25.3687 51.8117 24.3203 51.0383 23.5469L42.4531 14.9617C41.6797 14.1883 40.6313 13.75 39.5398 13.75H35.75V9.625C35.75 7.34766 33.9023 5.5 31.625 5.5H9.625C7.34766 5.5 5.5 7.34766 5.5 9.625V13.75H0.6875C0.309375 13.75 0 14.0594 0 14.4375V15.8125C0 16.1906 0.309375 16.5 0.6875 16.5H24.0625C24.4406 16.5 24.75 16.8094 24.75 17.1875V18.5625C24.75 18.9406 24.4406 19.25 24.0625 19.25H3.4375C3.05938 19.25 2.75 19.5594 2.75 19.9375V21.3125C2.75 21.6906 3.05938 22 3.4375 22H21.3125C21.6906 22 22 22.3094 22 22.6875V24.0625C22 24.4406 21.6906 24.75 21.3125 24.75H0.6875C0.309375 24.75 0 25.0594 0 25.4375V26.8125C0 27.1906 0.309375 27.5 0.6875 27.5H18.5625C18.9406 27.5 19.25 27.8094 19.25 28.1875V29.5625C19.25 29.9406 18.9406 30.25 18.5625 30.25H5.5V41.25C5.5 45.8047 9.19531 49.5 13.75 49.5C18.3047 49.5 22 45.8047 22 41.25H33C33 45.8047 36.6953 49.5 41.25 49.5C45.8047 49.5 49.5 45.8047 49.5 41.25H53.625C54.3812 41.25 55 40.6312 55 39.875V37.125C55 36.3687 54.3812 35.75 53.625 35.75ZM13.75 45.375C11.4727 45.375 9.625 43.5273 9.625 41.25C9.625 38.9726 11.4727 37.125 13.75 37.125C16.0273 37.125 17.875 38.9726 17.875 41.25C17.875 43.5273 16.0273 45.375 13.75 45.375ZM41.25 45.375C38.9727 45.375 37.125 43.5273 37.125 41.25C37.125 38.9726 38.9727 37.125 41.25 37.125C43.5273 37.125 45.375 38.9726 45.375 41.25C45.375 43.5273 43.5273 45.375 41.25 45.375ZM48.125 27.5H35.75V17.875H39.5398L48.125 26.4601V27.5Z" fill="#003AAA"/>
</g>
</svg>
