<svg width="55" height="55" viewBox="0 0 55 55" fill="none" xmlns="http://www.w3.org/2000/svg">
<g id="Support">
<path id="Vector" d="M27.5 4.58334C14.8638 4.58334 4.58334 14.8638 4.58334 27.5V36.9944C4.58334 39.341 6.63897 41.25 9.16668 41.25H11.4583C12.0661 41.25 12.649 41.0086 13.0788 40.5788C13.5086 40.149 13.75 39.5661 13.75 38.9583V27.1723C13.75 26.5645 13.5086 25.9816 13.0788 25.5518C12.649 25.1221 12.0661 24.8806 11.4583 24.8806H9.37751C10.6517 16.0119 18.2829 9.16667 27.5 9.16667C36.7171 9.16667 44.3483 16.0119 45.6225 24.8806H43.5417C42.9339 24.8806 42.351 25.1221 41.9212 25.5518C41.4914 25.9816 41.25 26.5645 41.25 27.1723V41.25C41.25 43.7777 39.1944 45.8333 36.6667 45.8333H32.0833V43.5417H22.9167V50.4167H36.6667C41.7221 50.4167 45.8333 46.3054 45.8333 41.25C48.361 41.25 50.4167 39.341 50.4167 36.9944V27.5C50.4167 14.8638 40.1363 4.58334 27.5 4.58334Z" fill="#003AAA"/>
</g>
</svg>
